<svg id="logo_GwG_horz_Reverse_rgb_2471x630px" xmlns="http://www.w3.org/2000/svg" viewBox="0 0 2470.26 629.79"><defs><style>.cls-1{fill:none;}.cls-2{fill:#fff;}</style></defs><title>logo_GwG_horz_Reverse_rgb_2471x630px</title><rect id="bounding_box_clear_space" data-name="bounding box_clear space" class="cls-1" width="2470.26" height="629.79"/><g id="Grow_with" data-name="Grow with"><path class="cls-2" d="M397.86,330.16q0,38.94-23.11,62-26,27.51-68.27,27.52-40.5,0-68.53-28t-28-69.05q0-41,28-69t68.53-28a103.32,103.32,0,0,1,38.68,7.27q18.16,7.27,29.85,20.51l-17.13,17.13a57.54,57.54,0,0,0-22.2-16.22,73.21,73.21,0,0,0-29.2-5.84q-30.37,0-51.4,21-20.78,21.3-20.77,53.22t20.77,53.21q21,21,51.4,21,27.78,0,46.21-15.57T374,338.46H306.48V316.14h90.08A80.31,80.31,0,0,1,397.86,330.16Z"/><path class="cls-2" d="M441.87,415.56H418V288.36h22.84v20.77h1Q445.5,299,456.8,291.87T479,284.73q10.38,0,17.66,3.11L489.38,311q-4.42-1.81-14-1.82-13.5,0-23.49,10.9a36.44,36.44,0,0,0-10,25.44Z"/><path class="cls-2" d="M497.56,352q0-29.32,18.44-48.54,18.69-19.21,47-19.21t46.73,19.21Q628.4,322.64,628.4,352q0,29.6-18.69,48.55Q591.27,419.73,563,419.72t-47-19.21Q497.55,381.29,497.56,352Zm23.89,0q0,20.52,11.94,33.23a40.78,40.78,0,0,0,59.18,0q11.94-12.72,11.95-33.23,0-20.25-11.95-33-12.2-13-29.59-13t-29.59,13Q521.45,331.73,521.45,352Z"/><path class="cls-2" d="M828.17,288.36l-41,127.2h-24.4L731.08,318l-31.41,97.6H675.53l-41-127.2h24.92l28.3,96.05H688l31.41-96.05h24.66l31.41,96.05h.26l28-96.05Z"/><path class="cls-2" d="M1078.81,288.36l-41,127.2h-24.4L981.73,318l-31.41,97.6H926.17l-41-127.2h24.92l28.29,96.05h.27l31.41-96.05h24.66l31.41,96.05h.26l28-96.05Z"/><path class="cls-2" d="M1126.68,244.49a16.83,16.83,0,1,1-4.93-11.94A16.24,16.24,0,0,1,1126.68,244.49Zm-4.93,43.87v127.2h-23.88V288.36Z"/><path class="cls-2" d="M1202.37,417.64q-15.58,0-25.83-9.61T1166,381.3V310.17H1143.7V288.36H1166V249.42h23.89v38.94h31.15v21.81h-31.15v63.34q0,12.72,4.93,17.26a16,16,0,0,0,11.16,4.54,24.18,24.18,0,0,0,5.58-.64,29.44,29.44,0,0,0,5.06-1.69l7.53,21.28A64.12,64.12,0,0,1,1202.37,417.64Z"/><path class="cls-2" d="M1249.6,229.69h23.88v58.67l-1,17.65h1q5.46-9.35,16.75-15.57a48,48,0,0,1,23.49-6.23q23.37,0,36,13.37t12.59,38v79.95h-23.88V340.28q0-34.26-30.37-34.27-14.55,0-24.53,12.08a42.77,42.77,0,0,0-10,28.16v69.31H1249.6Z"/></g><g id="Google_logo" data-name="Google logo"><path class="cls-2" d="M1537.33,334.44V305.76h96a94,94,0,0,1,1.55,17.58c0,21.51-5.89,48.13-24.83,67.08-18.44,19.2-42,29.44-73.22,29.44-57.86,0-106.5-47.11-106.5-105s48.64-105,106.5-105c32,0,54.78,12.54,71.94,28.93l-20.23,20.22c-12.29-11.52-28.93-20.48-51.71-20.48-42.25,0-75.27,34-75.27,76.29s33,76.3,75.27,76.3c27.39,0,43-11,53-21,8.14-8.13,13.49-19.8,15.57-35.75Z"/><path class="cls-2" d="M1781.17,352.27c0,38.92-30.47,67.59-67.84,67.59s-67.85-28.67-67.85-67.59c0-39.17,30.47-67.58,67.85-67.58S1781.17,313.1,1781.17,352.27Zm-29.7,0c0-24.32-17.66-41-38.14-41s-38.15,16.64-38.15,41c0,24.07,17.67,41,38.15,41S1751.47,376.34,1751.47,352.27Z"/><path class="cls-2" d="M1929.17,352.27c0,38.92-30.47,67.59-67.84,67.59s-67.85-28.67-67.85-67.59c0-39.17,30.47-67.58,67.85-67.58S1929.17,313.1,1929.17,352.27Zm-29.7,0c0-24.32-17.66-41-38.14-41s-38.15,16.64-38.15,41c0,24.07,17.67,41,38.15,41S1899.47,376.34,1899.47,352.27Z"/><path class="cls-2" d="M2071,288.78V410.13c0,49.92-29.44,70.41-64.26,70.41-32.77,0-52.49-22-59.91-39.94l25.86-10.76c4.61,11,15.87,24.07,34,24.07,22.27,0,36.09-13.83,36.09-39.68V404.5h-1c-6.65,8.19-19.46,15.36-35.58,15.36-33.8,0-64.78-29.44-64.78-67.33,0-38.15,31-67.84,64.78-67.84,16.12,0,28.93,7.16,35.58,15.1h1v-11Zm-26.12,63.75c0-23.81-15.87-41.22-36.09-41.22-20.49,0-37.64,17.41-37.64,41.22,0,23.55,17.15,40.7,37.64,40.7C2029,393.23,2044.91,376.08,2044.91,352.53Z"/><path class="cls-2" d="M2121.33,217.76v198h-29.7v-198Z"/><path class="cls-2" d="M2236,374.54l23,15.37c-7.43,11-25.35,29.95-56.33,29.95-38.4,0-67.07-29.7-67.07-67.59,0-40.19,28.93-67.58,63.75-67.58,35.07,0,52.22,27.9,57.85,43l3.08,7.67L2170,372.75c6.92,13.57,17.67,20.48,32.77,20.48S2228.32,385.81,2236,374.54Zm-70.92-24.32,60.42-25.09c-3.33-8.44-13.31-14.33-25.09-14.33C2185.32,310.8,2164.32,324.11,2165.09,350.22Z"/></g></svg>