<svg id="Layer_1" data-name="Layer 1" xmlns="http://www.w3.org/2000/svg" viewBox="0 0 908.98 277.12"><defs><style>.cls-1{fill:#fff;}.cls-2{fill:none;}</style></defs><title>Artboard 1</title><path class="cls-1" d="M856.69,237.31h10.75V188.46h16V180H840.73v8.51h16Zm-68.82,0h9.7V193.43l25.83,43.88h11.07V180h-9.7v41.32L800.62,180H787.87Zm-43.55,0h37.22v-8.42H755V212.2H775.2v-8.1H755V188.38h25.18V180H744.32Zm-67.06,0h9.62V194.07l17.41,43.24h3.45l17.08-43.24v43.24h10.67V180H721.38L706.7,219.1,691.53,180H677.26Zm-32.89,0h10.75V188.46h16V180H628.4v8.51h16Zm-33.37,0h10.83V180H611Zm-67.39,0h9.63V194.07l17.41,43.24h3.45l17.08-43.24v43.24h10.67V180H587.73L573.05,219.1,557.89,180H543.61Zm-67.06,0h9.63V194.07l17.41,43.24H507l17.09-43.24v43.24h10.67V180H520.67L506,219.1,490.83,180H476.55Zm-35.74-7.78c-10.35,0-18.05-8.1-18.05-20.62v-.64c0-12.35,6.66-20.62,18-20.62s17.81,8.67,17.81,20.46v.64c0,12.52-6.74,20.78-17.73,20.78m-.08,8.58c17.4,0,29-12.59,29-29.36v-.64c0-16.77-11.88-28.88-29-28.88s-29,12.36-29,29.12V209c0,16.53,11.47,29.12,29,29.12m-57.56,0c13.64,0,23.42-7,25.11-20.86H397.85c-1.2,8.19-6.74,12.28-14.68,12.28-10.59,0-16.77-7.7-16.77-20.62v-.64c0-12.83,6.58-20.7,16.69-20.7,8.26,0,12.59,3.93,13.72,11.56h10.83c-1.29-13.48-11.47-20.06-24.63-20.06-16,0-27.84,12-27.84,29.28V209c0,17.65,10,29.12,28,29.12"/><path class="cls-1" d="M569.75,166.84H580.5V142.05l18-32.57H588l-12.6,23.75-12.91-23.75H550.74l19,32.49Zm-53.19-8.43V117.9h6.1c13.48,0,19.09,7.46,19.09,19.74v.64c0,12.75-6.17,20.13-18.93,20.13Zm-10.75,8.43h17.25c20.14,0,29.84-11.87,29.84-28.56v-.72c0-16.69-9.7-28.08-29.68-28.08H505.81Zm-31.28-48.61,8.58,26.55H466ZM449,166.84h10l4.57-14.2h21.74l4.65,14.2h11.07l-18.93-57.36h-14Zm-42,0h37.22v-8.43H417.66V141.73h20.21v-8.1H417.66V117.9h25.18v-8.42H407ZM368.73,136V117.74h8.58c6.82,0,10.91,2.33,10.91,8.83v.32c0,6.1-3.77,9.14-10.91,9.14Zm-10.67,30.81h10.67V143.65h6.82l15,23.19H402l-16-24.79c7.14-1.84,12.67-6.42,12.67-15.4v-.32c0-11.71-8.74-16.85-21.34-16.85H358.06Z"/><path class="cls-1" d="M353.57,39v8.5h16V96.37h10.75V47.51h16V39Zm85.27,0V63.4H413.17V39H402.42V96.37h10.75V72h25.67V96.37h10.75V39Zm19.49,0V96.37h37.22V87.94H469V71.26h20.22v-8.1H469V47.43h25.19V39Z"/><path class="cls-1" d="M25.9,39v198.3H247.62V39Zm145.56,155.4H119.82v-93h25.94v76.55h25c17.22,0,24.45-11.93,24.45-42.66,0-30.9-8.22-39.89-25.7-39.89h-56.9v99H86.87v-99H49.18V78.87H177.46c30.94,0,45.64,16,45.64,56.16C223.1,187.93,201.16,194.41,171.46,194.41Z"/><path class="cls-2" d="M171.75,194.59H120V101.38h26v76.7h25c17.25,0,24.5-12,24.5-42.74,0-31-8.23-40-25.75-40h-57v99.22H87V95.37H49.23V78.82H177.76c31,0,45.72,16,45.72,56.27,0,53-22,59.5-51.73,59.5"/></svg>